<?xml version="1.0" encoding="UTF-8" standalone="no"?>
<svg
   xmlns:dc="http://purl.org/dc/elements/1.1/"
   xmlns:cc="http://creativecommons.org/ns#"
   xmlns:rdf="http://www.w3.org/1999/02/22-rdf-syntax-ns#"
   xmlns:svg="http://www.w3.org/2000/svg"
   xmlns="http://www.w3.org/2000/svg"
   xmlns:sodipodi="http://sodipodi.sourceforge.net/DTD/sodipodi-0.dtd"
   xmlns:inkscape="http://www.inkscape.org/namespaces/inkscape"
   t="1582420907514"
   class="icon"
   viewBox="0 0 1024 1024"
   version="1.1"
   p-id="2000"
   width="200"
   height="200"
   id="svg10"
   sodipodi:docname="day.svg"
   inkscape:version="0.92.3 (2405546, 2018-03-11)">
  <metadata
     id="metadata14">
    <rdf:RDF>
      <cc:Work
         rdf:about="">
        <dc:format>image/svg+xml</dc:format>
        <dc:type
           rdf:resource="http://purl.org/dc/dcmitype/StillImage" />
      </cc:Work>
    </rdf:RDF>
  </metadata>
  <sodipodi:namedview
     pagecolor="#ffffff"
     bordercolor="#666666"
     borderopacity="1"
     objecttolerance="10"
     gridtolerance="10"
     guidetolerance="10"
     inkscape:pageopacity="0"
     inkscape:pageshadow="2"
     inkscape:window-width="1853"
     inkscape:window-height="1016"
     id="namedview12"
     showgrid="false"
     inkscape:zoom="1.18"
     inkscape:cx="100"
     inkscape:cy="100"
     inkscape:window-x="67"
     inkscape:window-y="34"
     inkscape:window-maximized="1"
     inkscape:current-layer="svg10" />
  <defs
     id="defs4">
    <style
       type="text/css"
       id="style2" />
  </defs>
  <path
     d="M522.860606 363.054545c76.024242 0 138.084848 62.060606 138.084849 138.084849s-62.060606 138.084848-138.084849 138.084848-138.084848-62.060606-138.084848-138.084848 62.060606-138.084848 138.084848-138.084849z m0-65.163636c-111.709091 0-203.248485 89.987879-203.248485 203.248485s89.987879 203.248485 203.248485 203.248485 203.248485-89.987879 203.248485-203.248485-91.539394-203.248485-203.248485-203.248485z"
     p-id="2001"
     id="path6"
     style="fill:#ffffff" />
  <path
     d="M522.860606 256c-17.066667 0-32.581818-13.963636-32.581818-32.581818V138.084848c0-17.066667 13.963636-32.581818 32.581818-32.581818 17.066667 0 32.581818 13.963636 32.581818 32.581818v85.333334c0 18.618182-15.515152 32.581818-32.581818 32.581818zM522.860606 896.775758c-17.066667 0-32.581818-13.963636-32.581818-32.581819v-85.333333c0-17.066667 13.963636-32.581818 32.581818-32.581818 17.066667 0 32.581818 13.963636 32.581818 32.581818v85.333333c0 17.066667-15.515152 32.581818-32.581818 32.581819zM696.630303 327.369697c-12.412121-12.412121-12.412121-32.581818 0-44.993939l60.509091-60.509091c12.412121-12.412121 32.581818-12.412121 44.993939 0 12.412121 12.412121 12.412121 32.581818 0 44.993939l-60.509091 60.509091c-12.412121 12.412121-32.581818 12.412121-44.993939 0zM243.587879 780.412121c-12.412121-12.412121-12.412121-32.581818 0-44.993939l60.509091-60.509091c12.412121-12.412121 32.581818-12.412121 44.993939 0 12.412121 12.412121 12.412121 32.581818 0 44.993939l-60.509091 60.509091c-12.412121 12.412121-32.581818 12.412121-44.993939 0zM349.090909 327.369697c-12.412121 12.412121-32.581818 12.412121-44.993939 0l-60.509091-60.509091c-12.412121-12.412121-12.412121-32.581818 0-44.993939 12.412121-12.412121 32.581818-12.412121 44.993939 0l60.509091 60.509091c12.412121 12.412121 12.412121 32.581818 0 44.993939zM802.133333 780.412121c-12.412121 12.412121-32.581818 12.412121-44.993939 0l-60.509091-60.509091c-12.412121-12.412121-12.412121-32.581818 0-44.993939 12.412121-12.412121 32.581818-12.412121 44.993939 0l60.509091 60.509091c12.412121 12.412121 12.412121 32.581818 0 44.993939zM277.721212 501.139394c0 17.066667-13.963636 32.581818-32.581818 32.581818h-85.333333c-17.066667 0-32.581818-13.963636-32.581819-32.581818 0-17.066667 13.963636-32.581818 32.581819-32.581818h85.333333c17.066667 0 32.581818 15.515152 32.581818 32.581818zM916.945455 501.139394c0 17.066667-13.963636 32.581818-32.581819 32.581818h-85.333333c-17.066667 0-32.581818-13.963636-32.581818-32.581818 0-17.066667 13.963636-32.581818 32.581818-32.581818H884.363636c18.618182 0 32.581818 15.515152 32.581819 32.581818z"
     p-id="2002"
     id="path8"
     style="fill:#ffffff" />
</svg>
